PathFileType	4	(X/Y/Z)	./resultDataOpenSim/trcMotMarkerGrf/sub10/qtm-13-04.trc
DataRate	CameraRate	NumFrames	NumMarkers	Units	OrigDataRate	OrigDataStartFrame	OrigNumFrames
250.000000	250.000000	12	24	m	250.000000	420	479
Frame#	Time	L.Toe.Tip			R.Toe.Tip			L.Ankle.Lat			R.Ankle.Lat			L.Ankle.Med			R.Ankle.Med			L.Heel			R.Heel			L.Knee.Lat			R.Knee.Lat			L.Knee.Med			R.Knee.Med			L.Thigh.Upper			R.Thigh.Upper			L.ASIS			R.ASIS			V.Sacral			L.Acromium			R.Acromium			C7			L.Elbow			R.Elbow			L.Wrist.Lat			R.Wrist.Lat
		X1	Y1	Z1	X2	Y2	Z2	X3	Y3	Z3	X4	Y4	Z4	X5	Y5	Z5	X6	Y6	Z6	X7	Y7	Z7	X8	Y8	Z8	X9	Y9	Z9	X10	Y10	Z10	X11	Y11	Z11	X12	Y12	Z12	X13	Y13	Z13	X14	Y14	Z14	X15	Y15	Z15	X16	Y16	Z16	X17	Y17	Z17	X18	Y18	Z18	X19	Y19	Z19	X20	Y20	Z20	X21	Y21	Z21	X22	Y22	Z22	X23	Y23	Z23	X24	Y24	Z24

420	1.676	1.7071974	0.04412214	-0.15236961	0.89732438	0.035498135	-0.010857133	1.5686009	0.077704833	-0.19731611	0.82405955	0.15073883	0.036723761	1.5812324	0.10772636	-0.1177363	0.86036067	0.15403877	-0.043378378	1.5079099	0.05274819	-0.15082896	0.77620046	0.16888415	-0.010868526	1.4842451	0.45737112	-0.22668473	1.0937755	0.4438833	0.066005935	1.5111351	0.44360236	-0.1074503	1.1285664	0.43220765	-0.057558435	1.3378216	0.82322292	-0.2755044	1.2202563	0.83285772	0.094273089	1.373606	0.93196745	-0.19101167	1.3199194	0.92055578	0.049845668	1.1235279	0.93514935	-0.10627023	1.2359449	1.3943815	-0.23454888	1.2205288	1.3865721	0.085436335	1.143607	1.4062702	-0.080202513	1.1082515	1.0803001	-0.27344729	1.2925492	1.0306063	0.13119816	1.1503974	0.85897847	-0.36562918	1.5248585	1.0067954	0.030475515
421	1.68	1.7073981	0.043277987	-0.15190808	0.89835921	0.035287214	-0.01079906	1.5676276	0.075226335	-0.19586562	0.82870079	0.15273601	0.036593287	1.5810825	0.10517099	-0.11607695	0.86605405	0.15470755	-0.043139793	1.507107	0.049494885	-0.14943579	0.78216646	0.1719467	-0.011799872	1.4907966	0.45595693	-0.22626638	1.1019988	0.44243379	0.066062107	1.5183937	0.44241841	-0.10725696	1.1377668	0.42991004	-0.057050435	1.3453713	0.82234584	-0.27575687	1.2279353	0.83098072	0.093998958	1.3806222	0.93165255	-0.19164385	1.3272102	0.91901071	0.048905873	1.1303832	0.93383453	-0.10619035	1.2420877	1.3930675	-0.23567592	1.2264677	1.385621	0.084192622	1.1496104	1.4046754	-0.081446902	1.1147133	1.0787807	-0.27400845	1.2983145	1.0292362	0.1297404	1.1569949	0.85756661	-0.36668688	1.5311804	1.0065667	0.0294515
422	1.684	1.7073423	0.042636844	-0.1512359	0.89952582	0.035020292	-0.010729073	1.5667877	0.07300875	-0.19460567	0.83363189	0.15458649	0.036505254	1.5806793	0.10297417	-0.11457343	0.87202963	0.15518722	-0.042777662	1.5063616	0.046537497	-0.14840473	0.78847235	0.17490983	-0.012666746	1.4974204	0.45465533	-0.22573212	1.1103327	0.44091099	0.066123785	1.5253607	0.44120788	-0.10696646	1.1472243	0.42742854	-0.056439725	1.3530869	0.82145852	-0.27602853	1.2357717	0.82904015	0.093795419	1.3876074	0.93129458	-0.19223515	1.3344611	0.91750145	0.047887024	1.1370292	0.93258071	-0.10603215	1.2482449	1.3917331	-0.23681729	1.2324159	1.3846946	0.082966594	1.1556248	1.403066	-0.082749458	1.1211853	1.0772205	-0.27463935	1.3044621	1.0278961	0.12835764	1.1636974	0.85613635	-0.36776399	1.5374538	1.0062369	0.028517277
423	1.688	1.7073419	0.042086682	-0.15052357	0.90083875	0.034684265	-0.010644678	1.5662967	0.071109798	-0.19352173	0.83886347	0.1562583	0.036468826	1.5802051	0.10098418	-0.11324092	0.87831187	0.15547071	-0.042249024	1.5058418	0.043813491	-0.14785427	0.79508813	0.17774896	-0.013447952	1.5041652	0.45350015	-0.22511142	1.1187761	0.43930983	0.066209154	1.5318591	0.44000874	-0.10657102	1.1569271	0.42475061	-0.055724324	1.3609533	0.82058059	-0.27633056	1.243753	0.82704353	0.093680811	1.3945361	0.93088008	-0.19276448	1.3416522	0.91610708	0.04673365	1.1435002	0.9313983	-0.10583664	1.2544118	1.390377	-0.23796645	1.2383913	1.3837736	0.081758844	1.1616584	1.40146	-0.084110678	1.1276868	1.0756269	-0.27534621	1.3111612	1.0267225	0.12713681	1.1705014	0.85469179	-0.36885299	1.5436799	1.0058078	0.02766641
424	1.692	1.7075682	0.041585103	-0.15000472	0.90228395	0.034272211	-0.010544328	1.566232	0.069515553	-0.19259174	0.8444118	0.15775212	0.036502907	1.5798794	0.099125642	-0.11207043	0.884909	0.15556973	-0.041531305	1.5055735	0.041397295	-0.14763753	0.80198063	0.18046276	-0.01411642	1.5110425	0.45250203	-0.22442571	1.1273558	0.43761284	0.066330484	1.5379379	0.43884629	-0.10599316	1.1668598	0.4218687	-0.054909113	1.3689624	0.81973628	-0.27667746	1.2517266	0.82495432	0.093621827	1.4013984	0.93039511	-0.19321348	1.3487873	0.91480788	0.045457355	1.1500782	0.93024823	-0.10576977	1.2605895	1.3890061	-0.23911266	1.2444023	1.3828458	0.080569922	1.1677198	1.399874	-0.085525097	1.1342323	1.0740039	-0.27614366	1.3180852	1.0257239	0.12603672	1.1773886	0.8532339	-0.36994643	1.5498572	1.0052751	0.02689761
425	1.696	1.7079995	0.041149912	-0.14975332	0.90380803	0.033788666	-0.010424176	1.5665088	0.068137157	-0.19177747	0.85028618	0.15908948	0.036638839	1.5798089	0.097388548	-0.11102216	0.89178998	0.15551775	-0.040646528	1.5054823	0.039354488	-0.14750547	0.80914883	0.1830942	-0.014628905	1.5180273	0.4516543	-0.22369737	1.1360698	0.43580663	0.066484471	1.5437796	0.4377378	-0.10515421	1.1770069	0.41877839	-0.054000799	1.3771091	0.81895286	-0.27708342	1.259511	0.82271008	0.093552949	1.4081904	0.92983519	-0.19357427	1.3558858	0.91353381	0.044121547	1.1571579	0.929055	-0.10605973	1.2667816	1.3876307	-0.2402437	1.2504712	1.3818945	0.07940088	1.1738143	1.3983156	-0.086970525	1.1408279	1.0723563	-0.27702685	1.3246124	1.0248434	0.1249268	1.1843422	0.85176094	-0.37104277	1.5559757	1.0046296	0.026210611
426	1.7	1.7084828	0.040803539	-0.14965481	0.90534274	0.033258403	-0.010279945	1.566944	0.066901921	-0.19103597	0.85647046	0.16030398	0.036904797	1.5799661	0.095789092	-0.11003123	0.89887392	0.15537404	-0.039680542	1.5054724	0.037683162	-0.1472764	0.81662089	0.18572024	-0.014956644	1.5250779	0.45093724	-0.22294369	1.1448974	0.43389059	0.066661073	1.5494262	0.4366893	-0.10407004	1.1873483	0.41547752	-0.053006766	1.3853755	0.81826338	-0.27756403	1.2670414	0.82029491	0.093436394	1.4149022	0.92920603	-0.19384498	1.3629699	0.91220813	0.042778689	1.1647982	0.92779218	-0.1067582	1.2729887	1.3862531	-0.24135126	1.2566185	1.3808992	0.078254223	1.1799379	1.3967894	-0.088409522	1.1474576	1.0706921	-0.27796819	1.3303359	1.0240422	0.12372098	1.1913747	0.8502707	-0.37214779	1.5620208	1.0038641	0.025601657
427	1.704	1.7088754	0.040548371	-0.14956262	0.90685871	0.03274371	-0.010118043	1.5673767	0.065833937	-0.19033824	0.86292599	0.16144693	0.037311748	1.580272	0.094362619	-0.10904624	0.90607121	0.15521425	-0.038723952	1.5054784	0.036362105	-0.14688523	0.82440449	0.18841273	-0.015106533	1.5321594	0.45032604	-0.22216056	1.1538076	0.43187751	0.066863913	1.5547143	0.43566676	-0.10285377	1.197854	0.41197679	-0.051942293	1.3937229	0.81771136	-0.27813432	1.2743562	0.8177609	0.09327867	1.4215248	0.92851427	-0.19402327	1.3701027	0.91076716	0.041450174	1.1724654	0.92654225	-0.10757668	1.2792072	1.3848598	-0.2424317	1.2628138	1.3798591	0.077136863	1.1860778	1.395303	-0.089807174	1.1540977	1.0690049	-0.27895772	1.3353891	1.0232481	0.12243686	1.1985215	0.8487623	-0.37326708	1.5679908	1.0029761	0.025065408
428	1.708	1.7091409	0.040372092	-0.14942763	0.90838567	0.032351288	-0.00996086	1.5677488	0.065028881	-0.18968051	0.86961595	0.1625956	0.037863378	1.5806633	0.093161095	-0.10806525	0.91333937	0.15511458	-0.03779214	1.5054806	0.035403991	-0.14637373	0.8324764	0.19122862	-0.015096594	1.5392621	0.44980558	-0.22132297	1.1627309	0.42978969	0.06711115	1.5594467	0.43459227	-0.10165584	1.2084875	0.40830888	-0.050833828	1.4020929	0.81735009	-0.27878905	1.2815186	0.81516979	0.093103726	1.4280541	0.92776323	-0.19410778	1.3773371	0.90918588	0.040144697	1.1796414	0.9253925	-0.10817995	1.2854312	1.3834345	-0.24348491	1.2689958	1.3787995	0.076060672	1.1922198	1.393869	-0.091143567	1.1607185	1.0672733	-0.2800231	1.3402566	1.0223485	0.12113995	1.2058021	0.84723714	-0.37439684	1.5739143	1.0019642	0.02459633
429	1.712	1.7093319	0.040254669	-0.14928021	0.9100004	0.032218687	-0.0098367052	1.568101	0.064560357	-0.18908018	0.87651692	0.16385307	0.038561768	1.5811157	0.092236746	-0.10713305	0.92067265	0.15515991	-0.036850958	1.5055064	0.03484818	-0.14589048	0.84082396	0.19423565	-0.014913433	1.5463981	0.44938448	-0.22041546	1.1715898	0.42765843	0.067416492	1.5636068	0.43342722	-0.10059917	1.2192187	0.4045219	-0.049712362	1.4104194	0.81723427	-0.27948017	1.2885848	0.81255193	0.092932545	1.4344833	0.92695494	-0.19409974	1.3845466	0.9075078	0.038865556	1.1868004	0.92425621	-0.10869863	1.2916589	1.381984	-0.24450903	1.2751221	1.3777653	0.075035892	1.1983505	1.3924997	-0.092408797	1.1672758	1.0654896	-0.28118322	1.3452921	1.021306	0.11987326	1.213208	0.84569834	-0.37552665	1.5798534	1.0008275	0.024183826
430	1.716	1.7095137	0.040175372	-0.14915467	0.91181279	0.032484167	-0.0097622182	1.5685099	0.064410643	-0.18855921	0.88360127	0.16534237	0.039382377	1.5816263	0.091617912	-0.10631066	0.92805655	0.15545399	-0.035890707	1.5056086	0.034705379	-0.1456527	0.84946214	0.19750608	-0.01450721	1.5535806	0.44909419	-0.21946556	1.180417	0.42551382	0.067776482	1.5674956	0.43229773	-0.099716486	1.2300327	0.40066796	-0.048604676	1.4186379	0.81740342	-0.28011825	1.2955866	0.80991856	0.092775692	1.4407988	0.92609627	-0.19400269	1.3914711	0.90581307	0.037614144	1.1953798	0.922847	-0.1097374	1.2978943	1.3805315	-0.24549987	1.2811753	1.3768097	0.074068875	1.2044514	1.3912015	-0.093599264	1.1737767	1.0636825	-0.28240354	1.3505085	1.0201821	0.11864023	1.2207246	0.84414955	-0.37664783	1.5858552	0.9995683	0.023816147
431	1.72	1.7097137	0.0401185	-0.14906192	0.91391836	0.033223004	-0.0097259646	1.5690228	0.064480759	-0.18813755	0.89081919	0.16718773	0.040252733	1.5821733	0.09129003	-0.10564189	0.93546145	0.15610077	-0.034936851	1.5058161	0.03491056	-0.14579344	0.85840344	0.20106935	-0.013836408	1.5608181	0.44897426	-0.21853065	1.1893698	0.42336741	0.06817385	1.5716798	0.43152541	-0.098928173	1.2409237	0.39679695	-0.047527669	1.4266892	0.81785883	-0.28060442	1.3025242	0.80728216	0.092636315	1.4469917	0.92520297	-0.19382487	1.3979874	0.90413777	0.03640039	1.2063942	0.92090534	-0.1117582	1.3041371	1.3790953	-0.24646114	1.2871764	1.3759492	0.073168921	1.2104979	1.389973	-0.094724296	1.1803119	1.0619095	-0.28362052	1.3557554	1.0190517	0.11742349	1.2283467	0.84259619	-0.37775572	1.5918712	0.99819522	0.023491597
